<?xml version="1.0" encoding="UTF-8"?>
<!DOCTYPE svg PUBLIC "-//W3C//DTD SVG 1.1//EN" "http://www.w3.org/Graphics/SVG/1.1/DTD/svg11.dtd">
<!-- Creator: CorelDRAW 2020 (64-Bit) -->
<svg xmlns="http://www.w3.org/2000/svg" xml:space="preserve" width="7278px" height="6156px" version="1.1" style="shape-rendering:geometricPrecision; text-rendering:geometricPrecision; image-rendering:optimizeQuality; fill-rule:evenodd; clip-rule:evenodd"
viewBox="0 0 10307.85 8718.2"
 xmlns:xlink="http://www.w3.org/1999/xlink"
 xmlns:xodm="http://www.corel.com/coreldraw/odm/2003">
 <defs>
  <style type="text/css">
   <![CDATA[
    .str0 {stroke:#373435;stroke-width:3.35;stroke-miterlimit:22.9256}
    .fil2 {fill:#ED3237}
    .fil5 {fill:#ED3237}
    .fil8 {fill:#D4C939}
    .fil9 {fill:#D4C939}
    .fil1 {fill:#C2539D}
    .fil10 {fill:#C2539D}
    .fil11 {fill:#9E9B75}
    .fil3 {fill:#71C389}
    .fil6 {fill:#71C389}
    .fil4 {fill:#3F8BC9}
    .fil12 {fill:#3F8BC9}
    .fil0 {fill:#3F5EA9}
    .fil7 {fill:#3F5EA9}
   ]]>
  </style>
 </defs>
 <g id="Capa_x0020_1">
  <metadata id="CorelCorpID_0Corel-Layer"/>
  <polygon class="fil0 str0" points="8754.07,4297.83 8614.28,4337.1 8636.08,4410.8 8774.1,4372.41 "/>
  <polygon class="fil1 str0" points="8776.01,4373.7 8636.21,4412.98 8658.01,4486.67 8796.03,4448.28 "/>
  <polygon class="fil2 str0" points="8731.85,4221.45 8592.05,4260.73 8613.85,4334.42 8751.87,4296.03 "/>
  <polygon class="fil3 str0" points="8710.7,4145.23 8570.9,4184.51 8592.7,4258.2 8730.73,4219.81 "/>
  <polygon class="fil0 str0" points="6914.24,5071.4 6751.43,5116.87 6769.67,5182.62 6930.82,5135.03 "/>
  <polygon class="fil1 str0" points="6933.06,5136.67 6769.67,5182.62 6786.3,5248.76 6952.08,5207.51 "/>
  <polygon class="fil2 str0" points="6894.66,5007.44 6733.38,5049.06 6751.43,5116.87 6914.24,5071.4 "/>
  <polygon class="fil3 str0" points="6874.54,4935.04 6715.57,4982.88 6733.38,5049.06 6893.53,5005.8 "/>
  <path class="fil4" d="M5951.52 4580.3c-2.86,0.38 -1.2,-0.62 -3.75,2.27 -1.26,1.43 -2.06,2.62 -3.25,3.82 -15.82,16.01 -42.93,15.74 -58.6,-0.52 -2.28,-2.38 -4.15,-6.13 -6.61,-7.06l-48.96 64.25c-5.33,7.26 1.03,14.05 5.36,18.54 42.46,44.01 11.33,114.68 -49.78,112.77 -8.18,-0.26 -17.84,-4.43 -25.38,-2.88 -6.8,1.4 -10.16,9.81 -13.47,15.62 -7.18,12.6 -13.79,24.05 -20.98,36.27l-31 53.43c-2.9,4.99 -8.74,13.31 -10.49,18.73 -5.58,17.31 1.75,32.67 12.27,41.44 11.8,9.84 67.61,24.07 85.48,29.04 25.39,7.07 23.76,-2.11 32.15,-19.98 34.13,-72.71 149.07,-62.59 162.12,27.31 1.34,9.25 -1.02,16.77 6.31,21.86 5.28,3.67 18.18,3.19 25.83,3.38 20.43,0.51 34.44,2.86 48.21,-8.27 12.17,-9.84 15.98,-24.14 11.74,-41.98 -10.24,-43.12 -26.13,-92.19 -36.4,-134.71 -7.39,-30.58 -10.64,-25.35 -30.56,-26.83 -54.59,-4.03 -82.11,-77.52 -34.98,-116.53 14.68,-12.15 26.48,-11.25 14.55,-33.62 -3.09,-5.79 -6.8,-12.75 -10.06,-18.99 -6.43,-12.32 -13.58,-24.39 -19.75,-37.36z"/>
  <polygon class="fil3 str0" points="5609.92,3866.27 5537.46,3993.19 5600.08,4029.02 5672.85,3903.22 "/>
  <polygon class="fil5 str0" points="5549.48,3831.31 5477.03,3958.23 5539.65,3994.06 5612.41,3868.25 "/>
  <polygon class="fil3 str0" points="5486.79,3795.56 5414.33,3922.48 5476.95,3958.31 5549.72,3832.5 "/>
  <polygon class="fil5 str0" points="5426.35,3760.59 5353.89,3887.51 5416.51,3923.34 5489.28,3797.54 "/>
  <polygon class="fil3 str0" points="5365.03,3726.32 5292.58,3853.24 5355.2,3889.07 5427.96,3763.27 "/>
  <polygon class="fil5 str0" points="5304.6,3691.35 5232.14,3818.28 5294.76,3854.11 5367.53,3728.3 "/>
  <polygon class="fil3 str0" points="5241.9,3655.61 5169.44,3782.53 5232.06,3818.36 5304.83,3692.55 "/>
  <polygon class="fil5 str0" points="5181.46,3620.64 5109,3747.56 5171.62,3783.39 5244.39,3657.59 "/>
  <polygon class="fil3 str0" points="5121.3,3585.46 5048.84,3712.38 5111.46,3748.21 5184.23,3622.4 "/>
  <polygon class="fil5 str0" points="5060.86,3550.49 4988.4,3677.41 5051.02,3713.24 5123.79,3587.44 "/>
  <polygon class="fil3 str0" points="4998.16,3514.74 4925.71,3641.66 4988.33,3677.49 5061.09,3551.69 "/>
  <polygon class="fil5 str0" points="4937.73,3479.78 4865.27,3606.7 4927.89,3642.53 5000.66,3516.72 "/>
  <polygon class="fil1 str0" points="9202.19,4729.37 9041.15,4773.07 9059.16,4839.81 9220.72,4795.55 "/>
  <polygon class="fil6 str0" points="9184.49,4662.98 9023.45,4706.68 9041.46,4773.42 9203.01,4729.16 "/>
  <polygon class="fil7 str0" points="9166.34,4596.59 9005.3,4640.3 9023.31,4707.03 9184.87,4662.78 "/>
  <polygon class="fil8 str0" points="9147.75,4528.53 8986.71,4572.24 9004.72,4638.98 9166.28,4594.72 "/>
  <polygon class="fil1 str0" points="9129.48,4463.43 8968.44,4507.14 8986.45,4573.88 9148,4529.62 "/>
  <polygon class="fil6 str0" points="9111.78,4397.05 8950.73,4440.75 8968.74,4507.49 9130.3,4463.23 "/>
  <polygon class="fil7 str0" points="9093.63,4330.66 8932.59,4374.36 8950.6,4441.1 9112.15,4396.84 "/>
  <polygon class="fil8 str0" points="9075.04,4262.6 8914,4306.3 8932.01,4373.04 9093.56,4328.79 "/>
  <polygon class="fil1 str0" points="9055.45,4196 8894.41,4239.7 8912.42,4306.44 9073.97,4262.18 "/>
  <polygon class="fil6 str0" points="9037.75,4129.61 8876.7,4173.31 8894.71,4240.05 9056.27,4195.8 "/>
  <polygon class="fil7 str0" points="9019.6,4063.22 8858.56,4106.93 8876.57,4173.67 9038.12,4129.41 "/>
  <polygon class="fil8 str0" points="9001.01,3995.16 8839.97,4038.87 8857.98,4105.61 9019.53,4061.35 "/>
  <polygon class="fil1 str0" points="9553.13,6006.72 9392.09,6050.42 9410.1,6117.16 9571.65,6072.9 "/>
  <polygon class="fil6 str0" points="9535.43,5940.33 9374.39,5984.03 9392.4,6050.77 9553.95,6006.52 "/>
  <polygon class="fil7 str0" points="9517.28,5873.94 9356.24,5917.65 9374.25,5984.38 9535.8,5940.13 "/>
  <polygon class="fil8 str0" points="9498.69,5805.88 9337.65,5849.59 9355.66,5916.33 9517.22,5872.07 "/>
  <polygon class="fil1 str0" points="9480.42,5740.79 9319.38,5784.49 9337.39,5851.23 9498.94,5806.97 "/>
  <polygon class="fil6 str0" points="9462.71,5674.4 9301.67,5718.1 9319.68,5784.84 9481.24,5740.58 "/>
  <polygon class="fil7 str0" points="9444.57,5608.01 9283.53,5651.71 9301.54,5718.45 9463.09,5674.2 "/>
  <polygon class="fil8 str0" points="9425.98,5539.95 9264.94,5583.66 9282.95,5650.39 9444.5,5606.14 "/>
  <polygon class="fil1 str0" points="9406.39,5473.35 9245.35,5517.05 9263.36,5583.79 9424.91,5539.53 "/>
  <polygon class="fil6 str0" points="9388.68,5406.96 9227.64,5450.66 9245.65,5517.4 9407.21,5473.15 "/>
  <polygon class="fil7 str0" points="9370.54,5340.57 9209.5,5384.28 9227.51,5451.02 9389.06,5406.76 "/>
  <polygon class="fil8 str0" points="9351.95,5272.52 9190.91,5316.22 9208.92,5382.96 9370.47,5338.7 "/>
  <polygon class="fil9 str0" points="9907.19,5030.39 9340.75,5194.48 9705.74,6578.32 10242.6,6442.01 "/>
  <polygon class="fil10 str0" points="9429.21,3104.29 8884.01,3261.3 9272.02,4859.35 9819.5,4710.65 "/>
  <polygon class="fil11 str0" points="1037.95,4796.71 4.29,4231.43 1598.67,7087.57 3139.67,5882.59 2911.14,5022.64 1235.27,5441.79 "/>
  <polygon class="fil1 str0" points="9399.28,6507.28 9320.87,6527.24 9361.84,6669.5 9435.56,6647.72 "/>
  <polygon class="fil1 str0" points="9399.28,6507.28 9320.87,6527.24 9361.33,6667.75 9435.56,6647.72 "/>
  <polygon class="fil9 str0" points="9325.82,6528.53 9247.4,6548.48 9285.27,6689.19 9361.33,6667.75 "/>
  <polygon class="fil12 str0" points="9248.09,6549.12 9170.04,6570.42 9207.55,6709.78 9283.61,6688.34 "/>
  <polygon class="fil5 str0" points="9171.79,6569.72 9093.74,6591.02 9131.24,6730.38 9207.3,6708.94 "/>
  <polygon class="fil6 str0" points="9094.78,6590.42 9016.73,6611.72 9054.23,6751.09 9130.3,6729.65 "/>
  <polygon class="fil7 str0" points="9019.44,6611.76 8941.39,6633.06 8978.9,6772.43 9054.96,6750.99 "/>
  <polygon class="fil9 str0" points="8941.17,6634.65 8862.76,6654.6 8900.63,6795.31 8976.69,6773.87 "/>
  <polygon class="fil12 str0" points="8863.45,6655.24 8785.4,6676.54 8822.9,6815.9 8898.96,6794.46 "/>
  <polygon class="fil5 str0" points="8787.14,6675.84 8709.09,6697.14 8746.6,6836.5 8822.66,6815.06 "/>
  <polygon class="fil6 str0" points="8710.13,6696.54 8632.08,6717.84 8669.59,6857.21 8745.65,6835.77 "/>
  <polygon class="fil7 str0" points="8634.8,6717.88 8556.75,6739.18 8594.25,6878.55 8670.31,6857.11 "/>
  <polygon class="fil9 str0" points="8561.59,6739.19 8483.18,6759.14 8521.05,6899.86 8597.11,6878.42 "/>
  <polygon class="fil12 str0" points="8483.87,6759.78 8405.82,6781.08 8443.32,6920.45 8519.39,6899.01 "/>
  <polygon class="fil5 str0" points="8407.56,6780.38 8329.51,6801.68 8367.02,6941.05 8443.08,6919.61 "/>
  <polygon class="fil6 str0" points="8330.56,6801.08 8252.51,6822.39 8290.01,6961.75 8366.07,6940.31 "/>
  <polygon class="fil7 str0" points="8255.22,6822.42 8177.17,6843.73 8214.67,6983.09 8290.74,6961.65 "/>
  <polygon class="fil1 str0" points="8175.39,6843.14 8096.98,6863.09 8137.94,7005.35 8211.67,6983.57 "/>
  <polygon class="fil1 str0" points="8175.39,6843.14 8096.98,6863.09 8137.44,7003.61 8211.67,6983.57 "/>
  <polygon class="fil9 str0" points="8101.92,6864.38 8023.51,6884.34 8061.38,7025.05 8137.44,7003.61 "/>
  <polygon class="fil12 str0" points="8024.2,6884.97 7946.15,6906.27 7983.65,7045.64 8059.71,7024.2 "/>
  <polygon class="fil5 str0" points="7947.89,6905.57 7869.84,6926.88 7907.35,7066.24 7983.41,7044.8 "/>
  <polygon class="fil6 str0" points="7870.88,6926.28 7792.83,6947.58 7830.34,7086.94 7906.4,7065.5 "/>
  <polygon class="fil7 str0" points="7795.55,6947.62 7717.5,6968.92 7755,7108.28 7831.07,7086.84 "/>
  <polygon class="fil9 str0" points="7717.28,6970.5 7638.86,6990.46 7676.73,7131.17 7752.79,7109.73 "/>
  <polygon class="fil12 str0" points="7639.55,6991.09 7561.5,7012.4 7599.01,7151.76 7675.07,7130.32 "/>
  <polygon class="fil5 str0" points="7563.25,7011.69 7485.2,7033 7522.7,7172.36 7598.76,7150.92 "/>
  <polygon class="fil6 str0" points="7486.24,7032.4 7408.19,7053.7 7445.69,7193.06 7521.76,7171.62 "/>
  <polygon class="fil7 str0" points="7410.9,7053.74 7332.85,7075.04 7370.36,7214.4 7446.42,7192.97 "/>
  <polygon class="fil9 str0" points="7337.7,7075.05 7259.29,7095 7297.15,7235.71 7373.22,7214.27 "/>
  <polygon class="fil12 str0" points="7259.97,7095.64 7181.93,7116.94 7219.43,7256.3 7295.49,7234.86 "/>
  <polygon class="fil5 str0" points="7183.67,7116.24 7105.62,7137.54 7143.12,7276.9 7219.19,7255.46 "/>
  <polygon class="fil6 str0" points="7106.66,7136.94 7028.61,7158.24 7066.12,7297.61 7142.18,7276.17 "/>
  <polygon class="fil7 str0" points="7031.33,7158.28 6953.28,7179.58 6990.78,7318.95 7066.84,7297.51 "/>
  <polygon class="fil9 str0" points="4932.82,4927.15 4846.44,5075.34 4906.43,5110.49 4992.55,4961.25 "/>
  <polygon class="fil5 str0" points="4872.72,4894.4 4786.34,5042.59 4846.34,5077.74 4932.46,4928.5 "/>
  <polygon class="fil6 str0" points="4813.22,4857.32 4726.84,5005.51 4786.84,5040.66 4872.96,4891.42 "/>
  <polygon class="fil10 str0" points="4753.13,4824.57 4666.75,4972.76 4726.74,5007.91 4812.86,4858.67 "/>
  <polygon class="fil9 str0" points="4693.73,4790.93 4607.35,4939.12 4667.34,4974.28 4753.46,4825.03 "/>
  <polygon class="fil5 str0" points="4633.63,4758.18 4547.25,4906.37 4607.25,4941.53 4693.37,4792.28 "/>
  <polygon class="fil6 str0" points="4574.13,4721.1 4487.75,4869.29 4547.75,4904.45 4633.87,4755.2 "/>
  <polygon class="fil10 str0" points="4514.04,4688.35 4427.66,4836.54 4487.66,4871.7 4573.78,4722.45 "/>
  <polygon class="fil11 str0" points="1841.67,1850.92 1654.22,1606.31 509.05,3170.76 1847.35,3896.31 2484.5,3606.39 1794.69,2896.09 "/>
  <polygon class="fil11 str0" points="4967.15,7102.09 2063.16,7741.95 2586.5,8716.25 10305.88,6732.34 10242.6,6442.01 5089.23,7843.21 "/>
  <polygon class="fil11 str0" points="9421.24,1255.79 1071.79,2.16 1733.22,1174.74 6149.2,3722.82 9511.16,2810.96 9661.64,2112.57 "/>
  <polygon class="fil5 str0" points="2082.03,7420.6 1922.18,7536.03 1967.35,7601.06 2136.45,7478.6 "/>
  <polygon class="fil5 str0" points="2034.23,7356.87 1874.38,7472.3 1919.55,7537.33 2082.03,7420.6 "/>
  <polygon class="fil5 str0" points="1988.1,7292.25 1828.26,7407.69 1873.42,7472.72 2035.9,7355.98 "/>
  <polygon class="fil5 str0" points="1943.84,7227.73 1784,7343.17 1829.17,7408.2 1991.64,7291.46 "/>
  <polygon class="fil5 str0" points="1925.69,7142.76 1738.85,7279 1784.02,7344.03 1946.49,7227.3 "/>
  <polygon class="fil5 str0" points="293.55,4027.79 156.5,3966.31 123.34,4036.66 265.92,4101.63 "/>
  <polygon class="fil5 str0" points="325.52,3955.21 188.46,3893.72 157.72,3965.19 293.55,4027.79 "/>
  <polygon class="fil5 str0" points="357.83,3883.51 220.77,3822.03 190.02,3893.49 325.86,3956.09 "/>
  <polygon class="fil5 str0" points="389.14,3810.31 252.08,3748.82 221.34,3820.29 357.17,3882.89 "/>
  <polygon class="fil5 str0" points="421.45,3738.61 284.39,3677.13 253.65,3748.6 389.48,3811.2 "/>
  <polygon class="fil5 str0" points="453.06,3665.53 316.01,3604.05 285.26,3675.52 421.1,3738.12 "/>
  <polygon class="fil5 str0" points="485.37,3593.84 348.32,3532.35 317.57,3603.82 453.41,3666.42 "/>
  <polygon class="fil5 str0" points="516.2,3520.46 379.15,3458.98 348.4,3530.45 484.24,3593.05 "/>
  <polygon class="fil5 str0" points="564.44,3453.63 411.46,3387.28 380.71,3458.75 516.55,3521.35 "/>
  <polygon class="fil3 str0" points="4874.75,3442.86 4802.29,3569.79 4864.91,3605.62 4937.67,3479.81 "/>
  <polygon class="fil5 str0" points="4814.31,3407.9 4741.85,3534.82 4804.47,3570.65 4877.24,3444.85 "/>
  <polygon class="fil3 str0" points="4751.61,3372.15 4679.15,3499.07 4741.77,3534.9 4814.54,3409.1 "/>
  <polygon class="fil5 str0" points="4691.17,3337.18 4618.72,3464.11 4681.33,3499.94 4754.1,3374.13 "/>
  <polygon class="fil3 str0" points="4629.86,3302.91 4557.4,3429.84 4620.02,3465.67 4692.79,3339.86 "/>
  <polygon class="fil5 str0" points="4569.42,3267.95 4496.96,3394.87 4559.58,3430.7 4632.35,3304.9 "/>
  <polygon class="fil3 str0" points="4506.72,3232.2 4434.26,3359.12 4496.88,3394.95 4569.65,3269.15 "/>
  <polygon class="fil5 str0" points="4446.29,3197.23 4373.83,3324.16 4436.45,3359.99 4509.21,3234.18 "/>
  <polygon class="fil3 str0" points="4386.12,3162.05 4313.66,3288.97 4376.28,3324.8 4449.05,3199 "/>
  <polygon class="fil5 str0" points="4325.68,3127.08 4253.23,3254.01 4315.85,3289.84 4388.61,3164.03 "/>
  <polygon class="fil3 str0" points="4262.56,3090.99 4190.1,3217.91 4252.72,3253.74 4325.49,3127.93 "/>
  <polygon class="fil5 str0" points="4202.12,3056.02 4129.67,3182.94 4192.28,3218.77 4265.05,3092.97 "/>
  <polygon class="fil3 str0" points="4139.43,3020.27 4066.97,3147.2 4129.59,3183.03 4202.35,3057.22 "/>
  <polygon class="fil5 str0" points="4078.99,2985.31 4006.53,3112.23 4069.15,3148.06 4141.92,3022.25 "/>
  <polygon class="fil3 str0" points="4017.67,2951.04 3945.22,3077.96 4007.83,3113.79 4080.6,2987.98 "/>
  <polygon class="fil5 str0" points="3957.24,2916.07 3884.78,3042.99 3947.4,3078.82 4020.16,2953.02 "/>
  <polygon class="fil3 str0" points="3894.54,2880.32 3822.08,3007.24 3884.7,3043.07 3957.47,2917.27 "/>
  <polygon class="fil5 str0" points="3834.1,2845.36 3761.64,2972.28 3824.26,3008.11 3897.03,2882.3 "/>
  <polygon class="fil3 str0" points="3773.94,2810.17 3701.48,2937.1 3764.1,2972.93 3836.87,2847.12 "/>
  <polygon class="fil5 str0" points="3713.5,2775.21 3641.04,2902.13 3703.66,2937.96 3776.43,2812.15 "/>
  <polygon class="fil3 str0" points="3649.25,2739.31 3576.79,2866.23 3639.41,2902.06 3712.18,2776.26 "/>
  <polygon class="fil5 str0" points="3588.81,2704.35 3516.35,2831.27 3578.97,2867.1 3651.74,2741.29 "/>
  <polygon class="fil3 str0" points="3526.11,2668.6 3453.65,2795.52 3516.27,2831.35 3589.04,2705.54 "/>
  <polygon class="fil5 str0" points="3465.67,2633.63 3393.22,2760.56 3455.84,2796.39 3528.6,2670.58 "/>
  <polygon class="fil3 str0" points="3404.36,2599.36 3331.9,2726.28 3394.52,2762.11 3467.29,2636.31 "/>
  <polygon class="fil5 str0" points="3343.92,2564.4 3271.46,2691.32 3334.08,2727.15 3406.85,2601.34 "/>
  <polygon class="fil3 str0" points="3281.22,2528.65 3208.77,2655.57 3271.39,2691.4 3344.15,2565.59 "/>
  <polygon class="fil5 str0" points="3220.79,2493.68 3148.33,2620.6 3210.95,2656.43 3283.72,2530.63 "/>
  <polygon class="fil3 str0" points="3160.62,2458.5 3088.17,2585.42 3150.78,2621.25 3223.55,2495.44 "/>
  <polygon class="fil5 str0" points="3100.19,2423.53 3027.73,2550.46 3090.35,2586.29 3163.11,2460.48 "/>
  <polygon class="fil3 str0" points="3032.88,2386.84 2960.42,2513.77 3023.04,2549.6 3095.81,2423.79 "/>
  <polygon class="fil5 str0" points="2972.44,2351.88 2899.98,2478.8 2962.6,2514.63 3035.37,2388.83 "/>
  <polygon class="fil3 str0" points="2909.74,2316.13 2837.29,2443.05 2899.91,2478.88 2972.67,2353.08 "/>
  <polygon class="fil5 str0" points="2849.31,2281.16 2776.85,2408.09 2839.47,2443.92 2912.24,2318.11 "/>
  <polygon class="fil3 str0" points="2787.99,2246.89 2715.53,2373.82 2778.15,2409.65 2850.92,2283.84 "/>
  <polygon class="fil5 str0" points="2727.55,2211.93 2655.1,2338.85 2717.71,2374.68 2790.48,2248.88 "/>
  <polygon class="fil3 str0" points="2664.86,2176.18 2592.4,2303.1 2655.02,2338.93 2727.78,2213.13 "/>
  <polygon class="fil5 str0" points="2604.42,2141.21 2531.96,2268.14 2594.58,2303.97 2667.35,2178.16 "/>
  <polygon class="fil3 str0" points="2544.26,2106.03 2471.8,2232.95 2534.42,2268.78 2607.18,2142.98 "/>
  <polygon class="fil5 str0" points="2483.82,2071.06 2411.36,2197.99 2473.98,2233.82 2546.75,2108.01 "/>
  <polygon class="fil9 str0" points="4844.2,5074.38 4757.82,5222.56 4817.82,5257.72 4903.94,5108.48 "/>
  <polygon class="fil5 str0" points="4784.11,5041.63 4697.73,5189.81 4757.72,5224.97 4843.84,5075.73 "/>
  <polygon class="fil6 str0" points="4724.61,5004.55 4638.23,5152.73 4698.22,5187.89 4784.34,5038.65 "/>
  <polygon class="fil10 str0" points="4664.52,4971.8 4578.14,5119.98 4638.13,5155.14 4724.25,5005.9 "/>
  <polygon class="fil9 str0" points="4605.11,4938.16 4518.73,5086.35 4578.73,5121.5 4664.85,4972.26 "/>
  <polygon class="fil5 str0" points="4545.02,4905.41 4458.64,5053.6 4518.64,5088.75 4604.76,4939.51 "/>
  <polygon class="fil6 str0" points="4485.52,4868.33 4399.14,5016.52 4459.14,5051.68 4545.26,4902.43 "/>
  <polygon class="fil10 str0" points="4425.43,4835.58 4339.05,4983.77 4399.04,5018.92 4485.16,4869.68 "/>
  <polygon class="fil9 str0" points="4456.34,4654.9 4369.96,4803.09 4429.95,4838.24 4516.07,4689 "/>
  <polygon class="fil5 str0" points="4396.25,4622.15 4309.87,4770.34 4369.86,4805.49 4455.98,4656.25 "/>
  <polygon class="fil6 str0" points="4336.75,4585.07 4250.37,4733.26 4310.36,4768.41 4396.48,4619.17 "/>
  <polygon class="fil10 str0" points="4276.65,4552.32 4190.27,4700.51 4250.27,4735.66 4336.39,4586.42 "/>
  <polygon class="fil9 str0" points="4217.25,4518.69 4130.87,4666.87 4190.87,4702.03 4276.99,4552.79 "/>
  <polygon class="fil5 str0" points="4157.16,4485.94 4070.78,4634.12 4130.77,4669.28 4216.89,4520.04 "/>
  <polygon class="fil6 str0" points="4097.66,4448.86 4011.28,4597.04 4071.27,4632.2 4157.39,4482.96 "/>
  <polygon class="fil10 str0" points="4037.57,4416.11 3951.19,4564.29 4011.18,4599.45 4097.3,4450.21 "/>
  <polygon class="fil9 str0" points="4367.73,4802.13 4281.35,4950.32 4341.34,4985.47 4427.46,4836.23 "/>
  <polygon class="fil5 str0" points="4307.63,4769.38 4221.25,4917.57 4281.25,4952.72 4367.37,4803.48 "/>
  <polygon class="fil6 str0" points="4248.13,4732.3 4161.75,4880.49 4221.75,4915.64 4307.87,4766.4 "/>
  <polygon class="fil10 str0" points="4188.04,4699.55 4101.66,4847.74 4161.65,4882.89 4247.78,4733.65 "/>
  <polygon class="fil9 str0" points="4128.64,4665.91 4042.26,4814.1 4102.25,4849.26 4188.37,4700.02 "/>
  <polygon class="fil5 str0" points="4068.55,4633.16 3982.17,4781.35 4042.16,4816.51 4128.28,4667.26 "/>
  <polygon class="fil6 str0" points="4009.04,4596.08 3922.67,4744.27 3982.66,4779.43 4068.78,4630.19 "/>
  <polygon class="fil10 str0" points="3948.95,4563.33 3862.57,4711.52 3922.57,4746.68 4008.69,4597.43 "/>
  <polygon class="fil0 str0" points="6839.46,4804.96 6676.65,4850.43 6694.89,4916.19 6856.04,4868.59 "/>
  <polygon class="fil1 str0" points="6858.28,4870.24 6694.89,4916.19 6711.51,4982.32 6877.3,4941.07 "/>
  <polygon class="fil2 str0" points="6819.87,4741 6658.6,4782.62 6676.65,4850.43 6839.46,4804.96 "/>
  <polygon class="fil3 str0" points="6799.75,4668.61 6640.78,4716.45 6658.6,4782.62 6818.75,4739.36 "/>
  <polygon class="fil0 str0" points="6765.49,4535.97 6602.69,4581.44 6620.93,4647.2 6782.07,4599.6 "/>
  <polygon class="fil1 str0" points="6784.32,4601.25 6620.93,4647.2 6637.55,4713.33 6803.34,4672.08 "/>
  <polygon class="fil2 str0" points="6745.91,4472.01 6584.64,4513.63 6602.69,4581.44 6765.49,4535.97 "/>
  <polygon class="fil3 str0" points="6725.79,4399.62 6566.82,4447.46 6584.64,4513.63 6744.79,4470.37 "/>
  <polygon class="fil2 str0" points="6710.22,4342.11 6548.95,4383.73 6567,4451.54 6729.81,4406.07 "/>
  <polygon class="fil3 str0" points="6690.11,4269.71 6531.14,4317.55 6548.95,4383.73 6709.1,4340.47 "/>
  <polygon class="fil2 str0" points="6671.54,4206.81 6510.27,4248.43 6528.32,4316.24 6691.13,4270.77 "/>
  <polygon class="fil3 str0" points="6651.42,4134.42 6492.45,4182.26 6510.27,4248.43 6670.42,4205.17 "/>
  <polygon class="fil0 str0" points="6752.52,5117.27 6589.72,5162.74 6607.96,5228.49 6769.1,5180.9 "/>
  <polygon class="fil1 str0" points="6771.35,5182.54 6607.96,5228.49 6624.58,5294.63 6790.37,5253.38 "/>
  <polygon class="fil2 str0" points="6732.94,5053.31 6571.67,5094.93 6589.72,5162.74 6752.52,5117.27 "/>
  <polygon class="fil3 str0" points="6712.82,4980.91 6553.85,5028.76 6571.67,5094.93 6731.82,5051.67 "/>
  <polygon class="fil0 str0" points="6677.74,4850.84 6514.94,4896.31 6533.18,4962.06 6694.32,4914.46 "/>
  <polygon class="fil1 str0" points="6696.57,4916.11 6533.18,4962.06 6549.8,5028.2 6715.59,4986.94 "/>
  <polygon class="fil2 str0" points="6658.16,4786.87 6496.89,4828.49 6514.94,4896.31 6677.74,4850.84 "/>
  <polygon class="fil3 str0" points="6638.04,4714.48 6479.07,4762.32 6496.89,4828.49 6657.04,4785.24 "/>
  <polygon class="fil0 str0" points="6603.78,4581.84 6440.97,4627.32 6459.22,4693.07 6620.36,4645.47 "/>
  <polygon class="fil1 str0" points="6622.6,4647.12 6459.22,4693.07 6475.84,4759.21 6641.62,4717.95 "/>
  <polygon class="fil2 str0" points="6584.2,4517.88 6422.92,4559.5 6440.97,4627.32 6603.78,4581.84 "/>
  <polygon class="fil3 str0" points="6564.08,4445.49 6405.11,4493.33 6422.92,4559.5 6583.08,4516.25 "/>
  <polygon class="fil2 str0" points="6548.51,4387.98 6387.24,4429.6 6405.29,4497.41 6568.09,4451.94 "/>
  <polygon class="fil3 str0" points="6528.39,4315.58 6369.42,4363.43 6387.24,4429.6 6547.39,4386.34 "/>
  <polygon class="fil2 str0" points="6509.83,4252.68 6348.56,4294.3 6366.61,4362.12 6529.41,4316.65 "/>
  <polygon class="fil3 str0" points="6489.71,4180.29 6330.74,4228.13 6348.56,4294.3 6508.71,4251.05 "/>
  <polygon class="fil0 str0" points="6970.37,5271.17 6807.57,5316.64 6825.81,5382.4 6986.95,5334.8 "/>
  <polygon class="fil1 str0" points="6989.2,5336.45 6825.81,5382.4 6842.43,5448.53 7008.22,5407.28 "/>
  <polygon class="fil2 str0" points="6950.79,5207.21 6789.52,5248.83 6807.57,5316.64 6970.37,5271.17 "/>
  <polygon class="fil0 str0" points="6808.66,5317.05 6645.85,5362.52 6664.1,5428.27 6825.24,5380.67 "/>
  <polygon class="fil1 str0" points="6827.48,5382.32 6664.1,5428.27 6680.72,5494.41 6846.5,5453.15 "/>
  <polygon class="fil2 str0" points="6789.08,5253.09 6627.8,5294.7 6645.85,5362.52 6808.66,5317.05 "/>
  <polygon class="fil7 str0" points="8982.52,3926.81 8821.48,3970.52 8839.49,4037.25 9001.04,3993 "/>
  <polygon class="fil8 str0" points="8963.93,3858.75 8802.89,3902.46 8820.9,3969.2 8982.45,3924.94 "/>
  <polygon class="fil7 str0" points="8945.54,3795.81 8784.5,3839.51 8802.51,3906.25 8964.06,3862 "/>
  <polygon class="fil8 str0" points="8926.95,3727.75 8765.91,3771.46 8783.92,3838.19 8945.47,3793.94 "/>
  <polygon class="fil1 str0" points="8451.29,3371.55 8372.88,3391.5 8413.85,3533.77 8487.57,3511.98 "/>
  <polygon class="fil1 str0" points="8451.29,3371.55 8372.88,3391.5 8413.34,3532.02 8487.57,3511.98 "/>
  <polygon class="fil9 str0" points="8377.83,3392.79 8299.41,3412.75 8337.28,3553.46 8413.34,3532.02 "/>
  <polygon class="fil12 str0" points="8300.1,3413.38 8222.05,3434.69 8259.56,3574.05 8335.62,3552.61 "/>
  <polygon class="fil5 str0" points="8223.8,3433.99 8145.75,3455.29 8183.25,3594.65 8259.31,3573.21 "/>
  <polygon class="fil6 str0" points="8146.79,3454.69 8068.74,3475.99 8106.24,3615.35 8182.31,3593.91 "/>
  <polygon class="fil7 str0" points="8071.45,3476.03 7993.4,3497.33 8030.91,3636.69 8106.97,3615.26 "/>
  <polygon class="fil9 str0" points="7993.18,3498.92 7914.77,3518.87 7952.64,3659.58 8028.7,3638.14 "/>
  <polygon class="fil12 str0" points="7915.46,3519.51 7837.41,3540.81 7874.91,3680.17 7950.97,3658.73 "/>
  <polygon class="fil5 str0" points="7839.15,3540.11 7761.1,3561.41 7798.61,3700.77 7874.67,3679.33 "/>
  <polygon class="fil6 str0" points="7762.14,3560.81 7684.09,3582.11 7721.6,3721.48 7797.66,3700.04 "/>
  <polygon class="fil7 str0" points="7686.81,3582.15 7608.76,3603.45 7646.26,3742.82 7722.32,3721.38 "/>
  <polygon class="fil9 str0" points="7613.6,3603.46 7535.19,3623.41 7573.06,3764.12 7649.12,3742.68 "/>
  <polygon class="fil12 str0" points="7535.88,3624.05 7457.83,3645.35 7495.33,3784.71 7571.4,3763.27 "/>
  <polygon class="fil5 str0" points="7459.57,3644.65 7381.52,3665.95 7419.03,3805.31 7495.09,3783.88 "/>
  <polygon class="fil6 str0" points="7382.57,3665.35 7304.52,3686.65 7342.02,3826.02 7418.08,3804.58 "/>
  <polygon class="fil7 str0" points="7307.23,3686.69 7229.18,3708 7266.68,3847.36 7342.75,3825.92 "/>
  <polygon class="fil1 str0" points="7227.4,3707.41 7148.99,3727.36 7189.95,3869.62 7263.68,3847.84 "/>
  <polygon class="fil1 str0" points="7227.4,3707.41 7148.99,3727.36 7189.45,3867.88 7263.68,3847.84 "/>
  <polygon class="fil9 str0" points="7153.93,3728.65 7075.52,3748.6 7113.39,3889.32 7189.45,3867.88 "/>
  <polygon class="fil12 str0" points="7076.21,3749.24 6998.16,3770.54 7035.66,3909.91 7111.72,3888.47 "/>
  <polygon class="fil5 str0" points="6999.9,3769.84 6921.85,3791.14 6959.36,3930.51 7035.42,3909.07 "/>
  <polygon class="fil6 str0" points="6922.89,3790.54 6844.84,3811.85 6882.35,3951.21 6958.41,3929.77 "/>
  <polygon class="fil7 str0" points="6847.56,3811.89 6769.51,3833.19 6807.01,3972.55 6883.07,3951.11 "/>
  <polygon class="fil9 str0" points="6769.29,3834.77 6690.87,3854.73 6728.74,3995.44 6804.8,3974 "/>
  <polygon class="fil12 str0" points="6691.56,3855.36 6613.51,3876.66 6651.02,4016.03 6727.08,3994.59 "/>
  <polygon class="fil5 str0" points="6615.26,3875.96 6537.21,3897.26 6574.71,4036.63 6650.77,4015.19 "/>
  <polygon class="fil6 str0" points="6538.25,3896.67 6460.2,3917.97 6497.7,4057.33 6573.77,4035.89 "/>
  <polygon class="fil7 str0" points="6462.91,3918.01 6384.86,3939.31 6422.37,4078.67 6498.43,4057.23 "/>
  <polygon class="fil9 str0" points="6389.71,3939.31 6311.3,3959.27 6349.16,4099.98 6425.23,4078.54 "/>
  <polygon class="fil12 str0" points="6311.98,3959.9 6233.93,3981.21 6271.44,4120.57 6347.5,4099.13 "/>
  <polygon class="fil0 str0" points="7358.44,6679.81 7195.63,6725.29 7213.87,6791.04 7375.02,6743.44 "/>
  <polygon class="fil1 str0" points="7377.26,6745.09 7213.87,6791.04 7230.49,6857.18 7396.28,6815.92 "/>
  <polygon class="fil2 str0" points="7338.85,6615.85 7177.58,6657.47 7195.63,6725.29 7358.44,6679.81 "/>
  <polygon class="fil3 str0" points="7318.73,6543.46 7159.76,6591.3 7177.58,6657.47 7337.73,6614.22 "/>
  <polygon class="fil0 str0" points="7283.66,6413.38 7120.85,6458.85 7139.09,6524.61 7300.24,6477.01 "/>
  <polygon class="fil1 str0" points="7302.48,6478.65 7139.09,6524.61 7155.71,6590.74 7321.5,6549.49 "/>
  <polygon class="fil2 str0" points="7264.07,6349.42 7102.8,6391.04 7120.85,6458.85 7283.66,6413.38 "/>
  <polygon class="fil3 str0" points="7243.95,6277.02 7084.98,6324.87 7102.8,6391.04 7262.95,6347.78 "/>
  <polygon class="fil0 str0" points="7209.69,6144.39 7046.89,6189.86 7065.13,6255.61 7226.27,6208.02 "/>
  <polygon class="fil1 str0" points="7228.52,6209.66 7065.13,6255.61 7081.75,6321.75 7247.53,6280.5 "/>
  <polygon class="fil2 str0" points="7190.11,6080.43 7028.84,6122.05 7046.89,6189.86 7209.69,6144.39 "/>
  <polygon class="fil3 str0" points="7169.99,6008.03 7011.02,6055.88 7028.84,6122.05 7188.99,6078.79 "/>
  <polygon class="fil2 str0" points="7154.42,5950.52 6993.15,5992.14 7011.2,6059.96 7174.01,6014.48 "/>
  <polygon class="fil3 str0" points="7134.3,5878.13 6975.33,5925.97 6993.15,5992.14 7153.3,5948.88 "/>
  <polygon class="fil0 str0" points="7196.72,6725.69 7033.92,6771.16 7052.16,6836.91 7213.3,6789.32 "/>
  <polygon class="fil1 str0" points="7215.55,6790.96 7052.16,6836.91 7068.78,6903.05 7234.57,6861.8 "/>
  <polygon class="fil2 str0" points="7177.14,6661.73 7015.87,6703.35 7033.92,6771.16 7196.72,6725.69 "/>
  <polygon class="fil3 str0" points="7157.02,6589.33 6998.05,6637.17 7015.87,6703.35 7176.02,6660.09 "/>
  <polygon class="fil0 str0" points="7121.94,6459.25 6959.14,6504.72 6977.38,6570.48 7138.52,6522.88 "/>
  <polygon class="fil1 str0" points="7140.77,6524.53 6977.38,6570.48 6994,6636.61 7159.78,6595.36 "/>
  <polygon class="fil2 str0" points="7102.36,6395.29 6941.09,6436.91 6959.14,6504.72 7121.94,6459.25 "/>
  <polygon class="fil3 str0" points="7082.24,6322.9 6923.27,6370.74 6941.09,6436.91 7101.24,6393.65 "/>
  <polygon class="fil0 str0" points="7047.98,6190.26 6885.17,6235.73 6903.42,6301.49 7064.56,6253.89 "/>
  <polygon class="fil1 str0" points="7066.8,6255.54 6903.42,6301.49 6920.04,6367.62 7085.82,6326.37 "/>
  <polygon class="fil2 str0" points="7028.4,6126.3 6867.12,6167.92 6885.17,6235.73 7047.98,6190.26 "/>
  <polygon class="fil3 str0" points="7008.28,6053.91 6849.31,6101.75 6867.12,6167.92 7027.28,6124.66 "/>
  <polygon class="fil2 str0" points="6992.71,5996.4 6831.44,6038.02 6849.49,6105.83 7012.29,6060.36 "/>
  <polygon class="fil3 str0" points="6972.59,5924 6813.62,5971.84 6831.44,6038.02 6991.59,5994.76 "/>
  <polygon class="fil0 str0" points="7414.57,6879.59 7251.76,6925.06 7270.01,6990.82 7431.15,6943.22 "/>
  <polygon class="fil2 str0" points="7394.99,6815.63 7233.72,6857.25 7251.76,6925.06 7414.57,6879.59 "/>
  <polygon class="fil0 str0" points="7252.86,6925.46 7090.05,6970.94 7108.29,7036.69 7269.44,6989.09 "/>
  <polygon class="fil2 str0" points="7233.28,6861.5 7072,6903.12 7090.05,6970.94 7252.86,6925.46 "/>
  <polygon class="fil2 str0" points="8691.23,4069.5 8551.43,4108.78 8573.23,4182.47 8711.25,4144.08 "/>
  <polygon class="fil3 str0" points="8670.08,3993.28 8530.28,4032.56 8552.08,4106.25 8690.11,4067.86 "/>
  <polygon class="fil0 str0" points="8513.41,4365.29 8373.61,4404.57 8395.41,4478.27 8533.43,4439.88 "/>
  <polygon class="fil1 str0" points="8535.34,4441.17 8395.55,4480.44 8417.34,4554.14 8555.37,4515.75 "/>
  <polygon class="fil2 str0" points="8491.18,4288.92 8351.38,4328.2 8373.18,4401.89 8511.21,4363.5 "/>
  <polygon class="fil3 str0" points="8470.04,4212.7 8330.24,4251.98 8352.04,4325.67 8490.06,4287.28 "/>
  <polygon class="fil2 str0" points="8450.56,4136.97 8310.77,4176.24 8332.57,4249.94 8470.59,4211.55 "/>
  <polygon class="fil3 str0" points="8429.42,4060.75 8289.62,4100.02 8311.42,4173.72 8449.44,4135.33 "/>
  <polygon class="fil0 str0" points="8221.25,4424.23 8081.45,4463.51 8103.25,4537.2 8241.27,4498.81 "/>
  <polygon class="fil1 str0" points="8243.18,4500.1 8103.38,4539.38 8125.18,4613.08 8263.21,4574.69 "/>
  <polygon class="fil2 str0" points="8199.02,4347.86 8059.22,4387.13 8081.02,4460.83 8219.05,4422.44 "/>
  <polygon class="fil3 str0" points="8177.87,4271.64 8038.08,4310.91 8059.87,4384.61 8197.9,4346.22 "/>
  <polygon class="fil2 str0" points="8158.4,4195.9 8018.6,4235.18 8040.4,4308.88 8178.43,4270.49 "/>
  <polygon class="fil3 str0" points="8137.25,4119.68 7997.46,4158.96 8019.26,4232.66 8157.28,4194.26 "/>
  <polygon class="fil0 str0" points="8078.14,4461.51 7938.35,4500.78 7960.15,4574.48 8098.17,4536.09 "/>
  <polygon class="fil1 str0" points="8100.08,4537.38 7960.28,4576.65 7982.08,4650.35 8120.1,4611.96 "/>
  <polygon class="fil2 str0" points="8055.92,4385.13 7916.12,4424.41 7937.92,4498.1 8075.94,4459.71 "/>
  <polygon class="fil3 str0" points="8034.77,4308.91 7894.97,4348.19 7916.77,4421.88 8054.8,4383.49 "/>
  <polygon class="fil2 str0" points="8015.3,4233.18 7875.5,4272.45 7897.3,4346.15 8035.32,4307.76 "/>
  <polygon class="fil3 str0" points="7994.15,4156.96 7854.35,4196.23 7876.15,4269.93 8014.18,4231.54 "/>
  <polygon class="fil2 str0" points="8119.57,4053.29 7979.78,4092.57 8001.58,4166.26 8139.6,4127.87 "/>
  <polygon class="fil3 str0" points="8098.43,3977.07 7958.63,4016.34 7980.43,4090.04 8118.45,4051.65 "/>
  <polygon class="fil2 str0" points="7976.47,4090.56 7836.68,4129.84 7858.47,4203.54 7996.5,4165.14 "/>
  <polygon class="fil3 str0" points="7955.33,4014.34 7815.53,4053.62 7837.33,4127.31 7975.35,4088.92 "/>
  <polygon class="fil0 str0" points="7792.36,4546.47 7652.56,4585.75 7674.36,4659.44 7812.38,4621.05 "/>
  <polygon class="fil1 str0" points="7814.29,4622.34 7674.49,4661.62 7696.29,4735.32 7834.32,4696.93 "/>
  <polygon class="fil2 str0" points="7770.13,4470.1 7630.33,4509.37 7652.13,4583.07 7790.16,4544.68 "/>
  <polygon class="fil3 str0" points="7748.98,4393.88 7609.19,4433.15 7630.99,4506.85 7769.01,4468.46 "/>
  <polygon class="fil2 str0" points="7729.51,4318.14 7589.72,4357.42 7611.51,4431.12 7749.54,4392.73 "/>
  <polygon class="fil3 str0" points="7708.37,4241.92 7568.57,4281.2 7590.37,4354.9 7728.39,4316.5 "/>
  <polygon class="fil0 str0" points="7649.26,4583.75 7509.46,4623.02 7531.26,4696.72 7669.28,4658.33 "/>
  <polygon class="fil1 str0" points="7671.19,4659.62 7531.39,4698.89 7553.19,4772.59 7691.21,4734.2 "/>
  <polygon class="fil2 str0" points="7627.03,4507.37 7487.23,4546.65 7509.03,4620.34 7647.05,4581.95 "/>
  <polygon class="fil3 str0" points="7605.88,4431.15 7466.09,4470.43 7487.88,4544.12 7625.91,4505.73 "/>
  <polygon class="fil2 str0" points="7586.41,4355.42 7446.61,4394.69 7468.41,4468.39 7606.44,4430 "/>
  <polygon class="fil3 str0" points="7565.26,4279.2 7425.47,4318.47 7447.27,4392.17 7585.29,4353.78 "/>
  <polygon class="fil2 str0" points="7690.69,4175.53 7550.89,4214.81 7572.69,4288.5 7710.71,4250.11 "/>
  <polygon class="fil3 str0" points="7669.54,4099.31 7529.74,4138.58 7551.54,4212.28 7689.57,4173.89 "/>
  <polygon class="fil2 str0" points="7547.58,4212.8 7407.79,4252.08 7429.59,4325.77 7567.61,4287.38 "/>
  <polygon class="fil3 str0" points="7526.44,4136.58 7386.64,4175.86 7408.44,4249.55 7546.46,4211.16 "/>
  <polygon class="fil2 str0" points="7323.48,4528.89 7183.69,4568.17 7205.49,4641.87 7343.51,4603.48 "/>
  <polygon class="fil3 str0" points="7302.34,4452.67 7162.54,4491.95 7184.34,4565.65 7322.36,4527.26 "/>
  <polygon class="fil2 str0" points="7282.87,4376.94 7143.07,4416.22 7164.87,4489.92 7302.89,4451.52 "/>
  <polygon class="fil3 str0" points="7261.72,4300.72 7121.92,4340 7143.72,4413.69 7281.75,4375.3 "/>
  <polygon class="fil0 str0" points="7105.05,4672.74 6965.25,4712.02 6987.05,4785.71 7125.07,4747.32 "/>
  <polygon class="fil1 str0" points="7126.98,4748.61 6987.18,4787.89 7008.98,4861.58 7147.01,4823.19 "/>
  <polygon class="fil2 str0" points="7082.82,4596.36 6943.02,4635.64 6964.82,4709.34 7102.85,4670.94 "/>
  <polygon class="fil3 str0" points="7061.67,4520.14 6921.88,4559.42 6943.68,4633.11 7081.7,4594.72 "/>
  <polygon class="fil2 str0" points="7042.2,4444.41 6902.4,4483.69 6924.2,4557.38 7062.23,4518.99 "/>
  <polygon class="fil3 str0" points="7021.06,4368.19 6881.26,4407.47 6903.06,4481.16 7041.08,4442.77 "/>
  <polygon class="fil3 str0" points="7385.35,4755.3 7245.55,4794.58 7267.35,4868.27 7405.37,4829.88 "/>
  <polygon class="fil2 str0" points="7365.88,4679.57 7226.08,4718.85 7247.88,4792.54 7385.9,4754.15 "/>
  <polygon class="fil3 str0" points="7344.73,4603.35 7204.93,4642.62 7226.73,4716.32 7364.75,4677.93 "/>
  <polygon class="fil1 str0" points="7149.11,4821.66 7009.32,4860.94 7031.12,4934.63 7169.14,4896.24 "/>
  <polygon class="fil3 str0" points="9205.76,5942.34 9065.96,5981.62 9087.76,6055.31 9225.78,6016.92 "/>
  <polygon class="fil6 str0" points="7488.46,5702.34 7410.41,5723.64 7447.91,5863.01 7523.98,5841.57 "/>
  <polygon class="fil7 str0" points="7413.12,5723.68 7335.07,5744.98 7372.58,5884.35 7448.64,5862.91 "/>
  <polygon class="fil2 str0" points="9186.28,5866.61 9046.49,5905.89 9068.29,5979.58 9206.31,5941.19 "/>
  <polygon class="fil3 str0" points="9165.14,5790.39 9025.34,5829.67 9047.14,5903.36 9185.16,5864.97 "/>
  <polygon class="fil2 str0" points="8986.24,6086.03 8846.44,6125.31 8868.24,6199 9006.26,6160.61 "/>
  <polygon class="fil3 str0" points="8965.09,6009.81 8825.29,6049.09 8847.09,6122.78 8985.12,6084.39 "/>
  <polygon class="fil2 str0" points="8945.62,5934.08 8805.82,5973.35 8827.62,6047.05 8965.65,6008.66 "/>
  <polygon class="fil3 str0" points="8924.47,5857.86 8784.68,5897.13 8806.47,5970.83 8944.5,5932.44 "/>
  <polygon class="fil0 str0" points="8726.34,6256.47 8586.54,6295.75 8608.34,6369.44 8746.37,6331.05 "/>
  <polygon class="fil2 str0" points="8704.11,6180.09 8564.32,6219.37 8586.11,6293.07 8724.14,6254.68 "/>
  <polygon class="fil3 str0" points="8682.97,6103.87 8543.17,6143.15 8564.97,6216.85 8702.99,6178.46 "/>
  <polygon class="fil2 str0" points="8663.49,6028.14 8523.7,6067.42 8545.5,6141.11 8683.52,6102.72 "/>
  <polygon class="fil3 str0" points="8642.35,5951.92 8502.55,5991.2 8524.35,6064.89 8662.37,6026.5 "/>
  <polygon class="fil0 str0" points="8583.24,6293.74 8443.44,6333.02 8465.24,6406.72 8603.26,6368.33 "/>
  <polygon class="fil2 str0" points="8561.01,6217.37 8421.21,6256.65 8443.01,6330.34 8581.04,6291.95 "/>
  <polygon class="fil3 str0" points="8539.86,6141.15 8400.07,6180.42 8421.87,6254.12 8559.89,6215.73 "/>
  <polygon class="fil2 str0" points="8520.39,6065.42 8380.59,6104.69 8402.39,6178.39 8540.42,6140 "/>
  <polygon class="fil3 str0" points="8499.24,5989.19 8359.45,6028.47 8381.25,6102.17 8519.27,6063.78 "/>
  <polygon class="fil2 str0" points="8624.67,5885.53 8484.87,5924.8 8506.67,5998.5 8644.69,5960.11 "/>
  <polygon class="fil3 str0" points="8603.52,5809.31 8463.72,5848.58 8485.52,5922.28 8623.55,5883.89 "/>
  <polygon class="fil2 str0" points="8481.57,5922.8 8341.77,5962.08 8363.57,6035.77 8501.59,5997.38 "/>
  <polygon class="fil3 str0" points="8460.42,5846.58 8320.62,5885.86 8342.42,5959.55 8480.44,5921.16 "/>
  <polygon class="fil0 str0" points="8297.45,6378.71 8157.65,6417.99 8179.45,6491.68 8317.48,6453.29 "/>
  <polygon class="fil2 str0" points="8275.22,6302.33 8135.43,6341.61 8157.23,6415.31 8295.25,6376.92 "/>
  <polygon class="fil3 str0" points="8254.08,6226.11 8114.28,6265.39 8136.08,6339.09 8274.1,6300.7 "/>
  <polygon class="fil2 str0" points="8234.6,6150.38 8094.81,6189.66 8116.61,6263.35 8254.63,6224.96 "/>
  <polygon class="fil3 str0" points="8213.46,6074.16 8073.66,6113.44 8095.46,6187.13 8233.48,6148.74 "/>
  <polygon class="fil0 str0" points="8154.35,6415.98 8014.55,6455.26 8036.35,6528.96 8174.37,6490.57 "/>
  <polygon class="fil2 str0" points="8132.12,6339.61 7992.32,6378.89 8014.12,6452.58 8152.15,6414.19 "/>
  <polygon class="fil3 str0" points="8110.97,6263.39 7971.18,6302.66 7992.98,6376.36 8131,6337.97 "/>
  <polygon class="fil2 str0" points="8091.5,6187.66 7951.71,6226.93 7973.5,6300.63 8111.53,6262.24 "/>
  <polygon class="fil3 str0" points="8070.36,6111.43 7930.56,6150.71 7952.36,6224.41 8090.38,6186.02 "/>
  <polygon class="fil2 str0" points="8195.78,6007.77 8055.98,6047.04 8077.78,6120.74 8215.81,6082.35 "/>
  <polygon class="fil3 str0" points="8174.63,5931.55 8034.84,5970.82 8056.63,6044.52 8194.66,6006.13 "/>
  <polygon class="fil2 str0" points="8052.68,6045.04 7912.88,6084.32 7934.68,6158.01 8072.7,6119.62 "/>
  <polygon class="fil3 str0" points="8031.53,5968.82 7891.73,6008.1 7913.53,6081.79 8051.56,6043.4 "/>
  <polygon class="fil2 str0" points="7816.87,6324.33 7677.07,6363.61 7698.87,6437.31 7836.89,6398.91 "/>
  <polygon class="fil3 str0" points="7795.72,6248.11 7655.93,6287.39 7677.72,6361.08 7815.75,6322.69 "/>
  <polygon class="fil2 str0" points="7776.25,6172.38 7636.45,6211.66 7658.25,6285.35 7796.28,6246.96 "/>
  <polygon class="fil0 str0" points="7598.43,6464.83 7458.63,6504.11 7480.43,6577.8 7618.46,6539.41 "/>
  <polygon class="fil2 str0" points="7576.2,6388.45 7436.41,6427.73 7458.21,6501.43 7596.23,6463.04 "/>
  <polygon class="fil3 str0" points="7555.06,6312.23 7415.26,6351.51 7437.06,6425.21 7575.08,6386.82 "/>
  <polygon class="fil2 str0" points="7535.59,6236.5 7395.79,6275.78 7417.59,6349.48 7555.61,6311.08 "/>
  <polygon class="fil3 str0" points="7838.11,6398.78 7698.32,6438.06 7720.11,6511.76 7858.14,6473.37 "/>
 </g>
</svg>
